HIERARCHY
ROOT Hips
{
    OFFSET 0.000000 0.000000 0.000000
    CHANNELS 6 Xposition Yposition Zposition Zrotation Xrotation Yrotation
        JOINT Chest
        {
            OFFSET -0.000000 31.571314 -0.000000
            CHANNELS 3 Zrotation Xrotation Yrotation
            JOINT Neck
            {
                OFFSET -0.000000 23.394884 0.000000
                CHANNELS 3 Zrotation Xrotation Yrotation
                JOINT Head
                {
                    OFFSET -0.000000 10.877778 0.000000
                    CHANNELS 3 Zrotation Xrotation Yrotation
                    End Site
                    {
                        OFFSET -0.000000 16.811111 0.000000
                    }
                }
            }
            JOINT LeftCollar
            {
                OFFSET -0.000000 23.394884 0.000000
                CHANNELS 3 Zrotation Xrotation Yrotation
                JOINT LeftShoulder
                {
                    OFFSET 21.500002 -0.000000 0.000000
                    CHANNELS 3 Zrotation Xrotation Yrotation
                    JOINT LeftElbow
                    {
                        OFFSET 24.792776 0.000000 0.000000
                        CHANNELS 3 Zrotation Xrotation Yrotation
                        JOINT LeftWrist
                        {
                            OFFSET 26.439411 0.000000 0.000000
                            CHANNELS 3 Zrotation Xrotation Yrotation
                            End Site
                            {
                                OFFSET 0.000000 -14.833334 0.000000
                            }
                        }
                    }
                }
            }
            JOINT RightCollar
            {
                OFFSET -0.000000 23.394884 0.000000
                CHANNELS 3 Zrotation Xrotation Yrotation
                JOINT RightShoulder
                {
                    OFFSET -21.500002 0.000000 0.000000
                    CHANNELS 3 Zrotation Xrotation Yrotation
                    JOINT RightElbow
                    {
                        OFFSET -24.792776 0.000000 0.000000
                        CHANNELS 3 Zrotation Xrotation Yrotation
                        JOINT RightWrist
                        {
                            OFFSET -26.439411 0.000000 0.000000
                            CHANNELS 3 Zrotation Xrotation Yrotation
                            End Site
                            {
                                OFFSET -0.000000 -14.833334 0.000000
                            }
                        }
                    }
                }
            }
        }
    JOINT LeftHip
    {
        OFFSET 11.866667 0.000000 0.000000
        CHANNELS 3 Zrotation Xrotation Yrotation
        JOINT LeftKnee
        {
            OFFSET -0.000000 -38.580112 0.000000
            CHANNELS 3 Zrotation Xrotation Yrotation
            JOINT LeftAnkle
            {
                OFFSET -0.000000 -41.767254 0.000000
                CHANNELS 3 Zrotation Xrotation Yrotation
                End Site
                {
                    OFFSET -0.000000 -4.944444 16.811111
                }
            }
        }
    }
    JOINT RightHip
    {
        OFFSET -11.866667 0.000000 0.000000
        CHANNELS 3 Zrotation Xrotation Yrotation
        JOINT RightKnee
        {
            OFFSET -0.000000 -38.580112 0.000000
            CHANNELS 3 Zrotation Xrotation Yrotation
            JOINT RightAnkle
            {
                OFFSET -0.000000 -41.767254 0.000000
                CHANNELS 3 Zrotation Xrotation Yrotation
                End Site
                {
                    OFFSET -0.000000 -4.944444 16.811111
                }
            }
        }
    }
}
MOTION
Frames:    13
Frame Time:    0.010000
81.850174    89.290810    -58.125675    -0.909997    3.313443    -98.342659    -0.030389    15.173575    9.743849    -2.097277    -6.804797    18.762632    -1.180339    -12.754972    18.615133    -21.188457    -0.291542    1.708140    -36.797504    37.265865    -36.154854    18.379520    -2.585417    -16.050694    94.527794    51.416119    89.847939    14.152238    0.967003    8.002531    -23.499638    59.634460    98.184311    -21.171455    -5.895715    30.671438    -75.596230    15.242630    -22.550638    12.661263    -8.858515    4.509961    -1.121120    5.364596    3.537484    -8.546425    7.879575    9.749479    8.668196    8.339899    -4.741450    -1.580049    1.836414    -7.647082    -0.255599    -11.710113    -7.194061    
81.771797    89.261925    -58.161812    -1.000606    3.464606    -98.349922    -0.763622    14.426284    9.452473    7.340939    -2.613310    17.394888    -11.312425    -12.410044    15.956779    -20.228132    0.182101    -3.767467    -37.621296    37.699726    -31.909891    17.655493    -2.432639    -15.921175    95.528725    51.103085    88.861458    17.074209    1.008200    4.840553    -16.377888    60.545845    91.311897    -20.550781    -5.715814    31.637537    -76.019951    15.716845    -20.109585    12.749820    -8.585446    5.091316    -0.911078    5.174742    3.323912    -9.231263    7.973860    9.582065    8.834517    8.485866    -4.999232    -1.613190    1.866653    -7.378895    -1.028025    -11.561984    -7.273041    
81.770203    89.230286    -58.176239    -0.732199    3.444109    -98.472969    -0.659496    14.164604    9.512013    6.960603    -2.722437    17.492176    -10.937561    -12.176668    16.157997    -20.240471    0.415769    -3.612404    -37.370899    37.667385    -32.306530    17.888903    -2.528047    -15.831636    94.965881    50.958359    89.433311    16.928347    0.842347    4.639702    -29.185297    59.426571    102.888077    -22.971111    -6.626164    29.776564    -74.765480    15.374163    -25.313540    12.703263    -8.564164    5.213233    -0.749847    4.712866    3.340453    -9.060680    8.240380    9.596459    8.836411    8.077734    -5.178462    -1.638899    2.120382    -7.157726    -0.165036    -11.844098    -7.120231    
81.626099    89.243462    -58.168560    -1.095114    3.554219    -98.360123    -0.627951    14.470399    9.293405    7.214792    -2.550116    17.495010    -11.202009    -12.240536    16.128904    -20.240152    0.547244    -3.783770    -37.257080    37.697750    -32.290051    17.996317    -2.522790    -15.754266    94.606979    50.991329    89.702934    17.161669    0.796012    4.917742    -15.629189    60.802921    90.520515    -19.975241    -5.353000    32.032104    -76.983932    16.318048    -19.420527    12.622212    -7.873931    5.368625    -0.601603    4.294733    3.245998    -8.889178    8.249664    9.489259    8.884221    8.552466    -5.449382    -1.629347    2.101073    -6.978110    -0.233617    -11.891376    -7.134689    
81.537369    89.258560    -58.155727    -1.268064    3.612850    -98.281975    -0.577869    14.608683    9.158668    7.132388    -2.474392    17.544371    -11.192625    -12.304473    16.180744    -20.273895    0.623667    -3.816127    -37.237118    37.594166    -32.264755    17.968311    -2.485851    -15.687035    94.448723    50.829483    89.789757    17.181513    0.758015    4.965987    -15.680470    60.810394    90.525131    -19.810917    -5.519753    32.060246    -76.758102    16.265476    -19.082315    12.529201    -7.366509    5.245079    -0.425776    3.734862    3.091660    -8.637933    8.622644    9.397778    8.914453    8.730574    -5.512180    -1.636157    2.196861    -6.943391    -0.230515    -11.945512    -7.187729    
81.537369    89.258560    -58.155727    -1.268085    3.612868    -98.281967    -0.567726    14.618762    9.160379    7.014693    -2.524448    17.566336    -11.095261    -12.301365    16.212585    -20.280216    0.658423    -3.744865    -37.200687    37.559685    -32.362450    18.009933    -2.533123    -15.695671    94.453545    50.856461    89.778328    17.162140    0.784401    5.049870    -15.522176    60.836342    90.296577    -19.647734    -5.584585    32.188820    -76.816460    16.307482    -18.895660    12.529228    -7.366479    5.245091    -0.425793    3.734864    3.091630    -8.637959    8.622648    9.397758    8.914454    8.730567    -5.512232    -1.636174    2.196919    -6.943276    -0.230444    -11.945513    -7.187751    
81.535675    89.260139    -58.148109    -1.118073    3.633835    -98.239853    -0.522451    14.473397    9.021502    7.066757    -2.635332    17.604961    -11.148759    -12.126495    16.254875    -20.263298    0.677147    -3.695131    -36.970974    37.782261    -32.566673    18.043339    -2.488086    -15.431170    94.073074    50.468472    89.995895    17.183779    0.766452    5.036747    -16.471313    60.762543    91.164635    -19.908194    -5.787669    32.027023    -76.365807    16.298903    -19.244957    12.463624    -7.301827    5.054045    -0.275546    3.289819    3.558166    -8.689124    8.857058    9.126824    8.958696    8.438559    -5.637737    -1.671215    2.481816    -6.612999    -0.280238    -12.050762    -7.417588    
81.490479    89.268433    -58.140213    -1.123014    3.692740    -98.190811    -0.483359    14.456207    8.860905    7.063411    -2.596890    17.607056    -11.186953    -12.141175    16.253281    -20.232805    0.647140    -3.708796    -37.055763    37.732895    -32.505363    18.068186    -2.459374    -15.298743    93.726669    50.542385    90.158516    17.102541    0.725110    4.746741    -30.358341    59.329750    103.779510    -22.906391    -6.805130    29.719797    -74.209602    15.249892    -25.295500    12.481566    -7.056728    5.466854    -0.249912    2.905501    3.102432    -8.626045    8.976666    9.117764    9.007487    8.394564    -5.527629    -1.653514    2.638104    -6.644082    -0.243465    -12.107135    -7.585860    
81.450424    89.272812    -58.140205    -1.121589    3.758732    -98.128555    -0.480312    14.423579    8.674920    7.106961    -2.691262    17.678259    -11.215348    -11.904101    16.338985    -20.245934    0.682319    -3.655209    -36.757336    37.984383    -32.598812    18.011744    -2.423546    -15.113717    93.469833    50.415398    90.446274    17.172184    0.702867    4.825496    -29.701540    59.469654    103.189041    -22.874159    -6.449636    29.780785    -74.292206    15.124429    -25.340378    12.509018    -6.805519    5.325523    -0.252491    2.589133    1.959387    -8.744950    8.723259    10.241406    9.075119    8.371929    -5.507538    -1.657693    2.736980    -6.758288    -0.231340    -12.150945    -7.543604    
81.423332    89.272560    -58.128578    -1.025899    3.835386    -98.115204    -0.433371    14.307702    8.557432    7.080820    -2.781163    17.760216    -11.186879    -11.739250    16.435741    -20.211739    0.640515    -3.574857    -36.872314    37.930492    -32.524960    18.078411    -2.412539    -15.078306    93.458069    50.336781    90.335083    17.207233    0.745567    4.933877    -28.651495    59.617180    102.236092    -22.554001    -6.184366    30.021650    -74.729149    15.365582    -24.882456    12.526900    -6.785666    6.124428    -0.176052    2.362905    2.176044    -8.541325    8.905296    9.380611    9.150578    8.236293    -5.475463    -1.664660    2.855816    -6.797477    -0.222266    -12.189671    -7.538834    
81.399857    89.270157    -58.127964    -0.965275    3.916663    -98.078056    -0.371424    14.334803    8.464308    7.055913    -2.935806    17.777214    -11.200555    -11.690688    16.446274    -20.107283    0.673610    -3.599071    -37.063263    37.608910    -32.432434    17.823261    -2.372788    -15.096654    93.908134    50.236595    89.900253    17.173918    0.742680    4.973830    -27.556362    59.628246    101.303192    -22.333105    -6.089404    30.171612    -74.837814    15.332724    -24.445395    12.515470    -6.829674    6.808386    0.020408    2.386707    1.112220    -8.453556    8.767508    9.622276    9.232074    8.139663    -5.353223    -1.655090    2.968155    -6.978765    -0.138074    -12.240845    -7.508067    
81.375404    89.263794    -58.124714    -0.896049    3.994580    -98.032173    -0.266256    14.268938    8.460182    7.036537    -3.132690    17.807949    -11.205656    -11.394802    16.494015    -20.098946    0.633451    -3.514418    -36.893391    37.728592    -32.699558    17.819578    -2.342835    -14.931244    93.702560    50.112141    90.091423    17.215889    0.780850    5.287557    -13.688167    60.647030    88.718430    -19.241335    -4.982020    32.345345    -76.718002    16.097504    -18.457939    12.545799    -6.824471    7.078890    0.097530    2.288737    0.653204    -8.588653    8.648357    9.810562    9.321838    8.049760    -5.285331    -1.664825    3.048052    -7.098167    -0.092124    -12.272901    -7.473260    
81.406631    89.246300    -58.124805    -0.619934    4.036638    -98.019417    -0.164137    13.934317    8.521966    7.071249    -3.041119    17.807587    -11.341165    -11.392009    16.484779    -20.022526    0.656722    -3.614097    -37.331985    37.470612    -32.411800    17.676182    -2.325112    -14.923766    94.252739    49.833443    89.541992    17.174446    0.796888    5.270108    -13.957461    60.660709    88.965111    -19.109835    -5.277375    32.364559    -76.693825    16.165972    -18.212484    12.558597    -7.104052    7.314438    0.199446    2.215269    0.803065    -8.379111    8.737611    9.482996    9.412488    7.678771    -5.141749    -1.687948    3.207796    -7.064472    -0.153153    -12.327840    -7.639667    
